<svg width="70.000000" height="70.000000" viewBox="0 0 70 70" fill="none" xmlns="http://www.w3.org/2000/svg"
     xmlns:xlink="http://www.w3.org/1999/xlink">
    <g id="android"/>
    <path id="Vector"
          d="M30.08 56.75L30.08 63.5Q30.08 63.68 30.02 63.83Q29.95 64 29.81 64.15Q29.66 64.29 29.49 64.36Q29.33 64.42 29.16 64.42Q28.99 64.42 28.84 64.36Q28.66 64.29 28.52 64.15Q28.37 64 28.3 63.83Q28.25 63.68 28.25 63.5L28.25 56.75L30.08 56.75ZM32.08 56.75L32.08 63.5C32.08 65.11 30.77 66.42 29.16 66.42C27.56 66.42 26.25 65.11 26.25 63.5L26.25 54.75L32.08 54.75L32.08 56.75Z"
          fill="#FFFFFF" fill-opacity="1.000000" fill-rule="evenodd"/>
    <path id="Vector"
          d="M41.75 56.75L41.75 63.5Q41.75 63.68 41.69 63.83Q41.62 64 41.47 64.15Q41.33 64.29 41.15 64.36Q41 64.42 40.83 64.42Q40.66 64.42 40.5 64.36Q40.33 64.29 40.18 64.15Q40.04 64 39.97 63.83Q39.91 63.68 39.91 63.5L39.91 56.75L41.75 56.75ZM43.75 56.75L43.75 63.5C43.75 65.11 42.43 66.42 40.83 66.42C39.22 66.42 37.91 65.11 37.91 63.5L37.91 54.75L43.75 54.75L43.75 56.75Z"
          fill="#FFFFFF" fill-opacity="1.000000" fill-rule="evenodd"/>
    <path id="Vector"
          d="M49.58 46.66L49.58 32.08C49.58 28.87 46.95 26.25 43.75 26.25L26.25 26.25C23.04 26.25 20.41 28.87 20.41 32.08L20.41 46.66C20.41 49.87 23.04 52.5 26.25 52.5L43.75 52.5C46.95 52.5 49.58 49.87 49.58 46.66ZM47.58 32.08L47.58 46.66Q47.58 47.42 47.32 48.08Q47.04 48.78 46.45 49.37Q45.87 49.95 45.16 50.23Q44.51 50.5 43.75 50.5L26.25 50.5Q24.33 50.5 23.37 49.54Q22.41 48.58 22.41 46.66L22.41 32.08Q22.41 30.16 23.37 29.2Q24.33 28.25 26.25 28.25L43.75 28.25Q44.5 28.25 45.16 28.51Q45.87 28.79 46.45 29.37Q47.04 29.96 47.32 30.66Q47.58 31.32 47.58 32.08Z"
          fill="#FFFFFF" fill-opacity="1.000000" fill-rule="evenodd"/>
    <path id="Vector"
          d="M14.58 43.75L14.58 32.08C14.58 30.47 13.27 29.16 11.66 29.16C10.06 29.16 8.75 30.47 8.75 32.08L8.75 43.75C8.75 45.35 10.06 46.66 11.66 46.66C13.27 46.66 14.58 45.35 14.58 43.75ZM12.58 32.08L12.58 43.75Q12.58 43.92 12.52 44.07Q12.45 44.24 12.31 44.39Q12.16 44.54 11.99 44.6Q11.83 44.66 11.66 44.66Q11.49 44.66 11.34 44.6Q11.16 44.54 11.02 44.39Q10.87 44.24 10.8 44.07Q10.75 43.92 10.75 43.75L10.75 32.08Q10.75 31.91 10.8 31.75Q10.87 31.58 11.02 31.43Q11.16 31.29 11.34 31.22Q11.49 31.16 11.66 31.16Q11.83 31.16 11.99 31.22Q12.16 31.29 12.31 31.43Q12.45 31.58 12.52 31.75Q12.58 31.91 12.58 32.08Z"
          fill="#FFFFFF" fill-opacity="1.000000" fill-rule="evenodd"/>
    <path id="Vector"
          d="M61.25 43.75L61.25 32.08C61.25 30.47 59.93 29.16 58.33 29.16C56.72 29.16 55.41 30.47 55.41 32.08L55.41 43.75C55.41 45.35 56.72 46.66 58.33 46.66C59.93 46.66 61.25 45.35 61.25 43.75ZM59.25 32.08L59.25 43.75Q59.25 43.92 59.19 44.07Q59.12 44.24 58.97 44.39Q58.83 44.54 58.65 44.6Q58.5 44.66 58.33 44.66Q58.16 44.66 58 44.6Q57.83 44.54 57.68 44.39Q57.54 44.24 57.47 44.07Q57.41 43.92 57.41 43.75L57.41 32.08Q57.41 31.91 57.47 31.75Q57.54 31.58 57.68 31.43Q57.83 31.29 58 31.22Q58.16 31.16 58.33 31.16Q58.5 31.16 58.65 31.22Q58.83 31.29 58.97 31.43Q59.12 31.58 59.19 31.75Q59.25 31.91 59.25 32.08Z"
          fill="#FFFFFF" fill-opacity="1.000000" fill-rule="evenodd"/>
    <path id="Vector"
          d="M46.66 17.5C46.66 20.06 44.56 22.16 42 22.16L27.99 22.16C25.43 22.16 23.33 20.06 23.33 17.5C23.33 11.05 28.55 5.83 35 5.83C41.44 5.83 46.66 11.05 46.66 17.5ZM42.56 20.1Q42.29 20.16 42 20.16L27.99 20.16Q27.7 20.16 27.43 20.1Q27.19 20.05 26.97 19.95Q26.76 19.87 26.58 19.75Q26.33 19.59 26.11 19.38Q25.9 19.16 25.74 18.91Q25.62 18.73 25.54 18.53Q25.44 18.3 25.39 18.06Q25.33 17.79 25.33 17.5Q25.33 16.38 25.57 15.31Q25.76 14.51 26.09 13.73Q26.43 12.93 26.9 12.21Q27.44 11.38 28.16 10.66Q28.88 9.94 29.71 9.4Q30.43 8.93 31.23 8.59Q32.01 8.26 32.81 8.07Q33.88 7.83 35 7.83Q36.11 7.83 37.18 8.07Q37.98 8.26 38.76 8.59Q39.56 8.93 40.28 9.4Q41.11 9.94 41.83 10.66Q42.55 11.38 43.09 12.21Q43.56 12.93 43.9 13.73Q44.23 14.51 44.42 15.31Q44.66 16.38 44.66 17.5Q44.66 17.79 44.6 18.06Q44.55 18.3 44.45 18.53Q44.37 18.73 44.25 18.91Q44.09 19.16 43.88 19.38Q43.66 19.59 43.41 19.75Q43.23 19.87 43.03 19.95Q42.8 20.05 42.56 20.1Z"
          fill="#FFFFFF" fill-opacity="1.000000" fill-rule="evenodd"/>
    <g/>
    <g id="git">
        <path id="Vector" d="M20.15 35.65L20.15 24.8" stroke="#F5F5F5" stroke-opacity="1.000000" stroke-width="3.000000"
              stroke-linejoin="round" stroke-linecap="round"/>
        <path id="Vector"
              d="M20.53 46.5C17.75 46.5 15.5 44.24 15.5 41.46C15.5 38.68 17.75 36.42 20.53 36.42C23.31 36.42 25.57 38.68 25.57 41.46C25.57 44.24 23.31 46.5 20.53 46.5Z"
              stroke="#F5F5F5" stroke-opacity="1.000000" stroke-width="3.000000" stroke-linejoin="round"/>
        <path id="Vector"
              d="M20.15 24.8C17.58 24.8 15.5 22.71 15.5 20.15C15.5 17.58 17.58 15.5 20.15 15.5C22.71 15.5 24.79 17.58 24.79 20.15C24.79 22.71 22.71 24.8 20.15 24.8Z"
              stroke="#F5F5F5" stroke-opacity="1.000000" stroke-width="3.000000" stroke-linejoin="round"/>
        <path id="Vector"
              d="M41.85 24.8C39.28 24.8 37.2 22.71 37.2 20.15C37.2 17.58 39.28 15.5 41.85 15.5C44.41 15.5 46.5 17.58 46.5 20.15C46.5 22.71 44.41 24.8 41.85 24.8Z"
              stroke="#F5F5F5" stroke-opacity="1.000000" stroke-width="3.000000" stroke-linejoin="round"/>
        <path id="Vector"
              d="M20.35 35.65C21.05 32.93 23.53 30.92 26.45 30.94L31.77 30.97C35.83 31 39.29 28.39 40.55 24.74"
              stroke="#F5F5F5" stroke-opacity="1.000000" stroke-width="3.000000" stroke-linejoin="round"
              stroke-linecap="round"/>
        <path id="Vector"
              d="M38.75 5.16C51.66 5.16 56.83 10.33 56.83 23.25L56.83 38.75C56.83 51.66 51.66 56.83 38.75 56.83L23.25 56.83C10.33 56.83 5.16 51.66 5.16 38.75L5.16 23.25C5.16 10.33 10.33 5.16 23.25 5.16L38.75 5.16Z"
              stroke="#F5F5F5" stroke-opacity="1.000000" stroke-width="3.000000" stroke-linejoin="round"/>
    </g>
    <g id="rulerPen">
        <path id="Vector"
              d="M43.09 53.08L33.76 53.08C28.11 53.08 25.01 49.97 25.01 44.33L25.01 11.66C25.01 6.01 28.11 2.91 33.76 2.91L43.09 2.91C48.74 2.91 51.84 6.01 51.84 11.66L51.84 44.33C51.84 49.97 48.72 53.08 43.09 53.08ZM33.76 6.41C30.07 6.41 28.51 7.97 28.51 11.66L28.51 44.33C28.51 48.02 30.07 49.58 33.76 49.58L43.09 49.58C46.78 49.58 48.34 48.02 48.34 44.33L48.34 11.66C48.34 7.97 46.78 6.41 43.09 6.41L33.76 6.41Z"
              fill="#FFFFFF" fill-opacity="1.000000" fill-rule="evenodd"/>
        <path id="Vector"
              d="M26.76 15.75L38.43 15.75C39.38 15.75 40.18 14.95 40.18 14C40.18 13.04 39.38 12.25 38.43 12.25L26.76 12.25C25.8 12.25 25.01 13.04 25.01 14C25.01 14.95 25.8 15.75 26.76 15.75Z"
              fill="#FFFFFF" fill-opacity="1.000000" fill-rule="evenodd"/>
        <path id="Vector"
              d="M26.76 43.75L36.09 43.75C37.05 43.75 37.84 42.95 37.84 42C37.84 41.04 37.05 40.25 36.09 40.25L26.76 40.25C25.8 40.25 25.01 41.04 25.01 42C25.01 42.95 25.8 43.75 26.76 43.75Z"
              fill="#FFFFFF" fill-opacity="1.000000" fill-rule="evenodd"/>
        <path id="Vector"
              d="M38.43 34.41L26.74 34.3C25.78 34.3 24.99 33.5 25.01 32.52C25.01 31.57 25.8 30.8 26.76 30.8L26.78 30.8L38.45 30.91C39.41 30.91 40.2 31.71 40.18 32.68C40.15 33.64 39.38 34.41 38.43 34.41ZM38.4 33.91Q38.41 33.91 38.42 33.91L38.4 33.91Z"
              fill="#FFFFFF" fill-opacity="1.000000" fill-rule="evenodd"/>
        <path id="Vector"
              d="M26.76 25.08L33.76 25.08C34.72 25.08 35.51 24.29 35.51 23.33C35.51 22.37 34.72 21.58 33.76 21.58L26.76 21.58C25.8 21.58 25.01 22.37 25.01 23.33C25.01 24.29 25.8 25.08 26.76 25.08Z"
              fill="#FFFFFF" fill-opacity="1.000000" fill-rule="evenodd"/>
        <path id="Vector"
              d="M12.81 53.01C10.68 53.01 8.67 51.7 7.3 49.42L5.38 46.24C4.68 45.08 4.15 43.16 4.15 41.81L4.15 11.55C4.15 6.78 8.02 2.91 12.78 2.91C17.54 2.91 21.42 6.78 21.42 11.55L21.42 41.79C21.42 43.14 20.88 45.05 20.18 46.22L18.27 49.39C16.94 51.7 14.93 53.01 12.81 53.01ZM12.81 6.41C9.98 6.41 7.67 8.72 7.67 11.55L7.67 41.79C7.67 42.51 8.02 43.79 8.39 44.42L10.31 47.6C11.03 48.81 11.94 49.49 12.81 49.49C13.67 49.49 14.58 48.79 15.3 47.6L17.21 44.42C17.59 43.79 17.94 42.51 17.94 41.79L17.94 11.55C17.94 8.72 15.63 6.41 12.81 6.41Z"
              fill="#FFFFFF" fill-opacity="1.000000" fill-rule="evenodd"/>
        <path id="Vector"
              d="M5.9 18.08L19.69 18.08C20.65 18.08 21.44 17.29 21.44 16.33C21.44 15.37 20.65 14.58 19.69 14.58L5.9 14.58C4.94 14.58 4.15 15.37 4.15 16.33C4.15 17.29 4.94 18.08 5.9 18.08Z"
              fill="#FFFFFF" fill-opacity="1.000000" fill-rule="evenodd"/>
    </g>
    <g id="slider">
        <path id="Vector"
              d="M36 32.02C37.09 32.02 38 32.91 38 34.02L38 36C38 40.4 35 44 30 44L18 44C13 44 10 40.4 10 36L10 34.02C10 32.91 10.9 32.02 12 32.02L36 32.02Z"
              fill="#FFFFFF" fill-opacity="1.000000" fill-rule="nonzero"/>
        <path id="Vector"
              d="M38 12L38 27C38 28.1 37.09 29 36 29L12 29C10.9 29 10 28.1 10 27L10 12C10 7.6 13 4 18 4L30 4C35 4 38 7.6 38 12Z"
              fill="#FFFFFF" fill-opacity="1.000000" fill-rule="nonzero"/>
        <path id="Vector"
              d="M6 41.5C5.17 41.5 4.5 40.82 4.5 40L4.5 8C4.5 7.17 5.17 6.5 6 6.5C6.82 6.5 7.5 7.17 7.5 8L7.5 40C7.5 40.82 6.82 41.5 6 41.5Z"
              fill="#FFFFFF" fill-opacity="1.000000" fill-rule="nonzero"/>
        <path id="Vector"
              d="M42 41.5C41.18 41.5 40.5 40.82 40.5 40L40.5 8C40.5 7.17 41.18 6.5 42 6.5C42.82 6.5 43.5 7.17 43.5 8L43.5 40C43.5 40.82 42.82 41.5 42 41.5Z"
              fill="#FFFFFF" fill-opacity="1.000000" fill-rule="nonzero"/>
    </g>

    <!--	икнки соцсетей-->
    <g id="ball"/>
    <path id="Vector" d="" fill="#7562E0" fill-opacity="1.000000" fill-rule="nonzero"/>
    <path id="Vector"
          d="M19.85 26.14C19.88 26.35 19.77 26.56 19.58 26.63C18.17 27.2 16.62 27.5 15.02 27.5C12.26 27.5 9.71 26.61 7.64 25.08C7.47 24.96 7.42 24.71 7.53 24.52C8.22 23.3 10.91 19.36 16.84 17.16C17.07 17.07 17.32 17.18 17.39 17.41C18.88 21.39 19.58 24.77 19.85 26.14Z"
          fill="#7562E0" fill-opacity="1.000000" fill-rule="evenodd"/>
    <path id="Vector"
          d="M27.27 17.36C26.7 20.43 24.97 23.11 22.56 24.93C22.3 25.13 21.92 24.98 21.86 24.67C21.6 23.32 20.96 20.41 19.73 16.95C19.65 16.68 19.82 16.4 20.1 16.36C23.21 15.98 25.93 16.58 26.96 16.86C27.17 16.93 27.31 17.15 27.27 17.36Z"
          fill="#7562E0" fill-opacity="1.000000" fill-rule="evenodd"/>
    <path id="Vector"
          d="M26.98 14.77C25.71 14.55 22.46 14.07 19.13 14.43C18.93 14.46 18.76 14.35 18.67 14.16C18.62 14.05 18.58 13.93 18.53 13.82C18.33 13.36 18.12 12.88 17.91 12.42C17.79 12.2 17.91 11.92 18.13 11.82C21.63 10.31 23.58 8.36 24.35 7.48C24.53 7.27 24.86 7.28 25.03 7.51C26.47 9.42 27.36 11.76 27.5 14.28C27.51 14.6 27.26 14.82 26.98 14.77Z"
          fill="#7562E0" fill-opacity="1.000000" fill-rule="evenodd"/>
    <path id="Vector"
          d="M23.05 5.98C22.4 6.77 20.57 8.64 17.11 10.02C16.91 10.11 16.67 10.02 16.56 9.82C14.96 6.92 13.26 4.48 12.47 3.38C12.28 3.12 12.43 2.75 12.75 2.69C13.47 2.57 14.23 2.51 15.01 2.51C18.03 2.51 20.82 3.58 22.98 5.38C23.17 5.52 23.2 5.8 23.05 5.98Z"
          fill="#7562E0" fill-opacity="1.000000" fill-rule="evenodd"/>
    <path id="Vector"
          d="M13.77 11.05C9.03 12.23 4.84 12.39 3.32 12.42C3.03 12.42 2.82 12.14 2.9 11.87C3.8 8.37 6.19 5.44 9.36 3.83C9.54 3.73 9.78 3.8 9.91 3.97C10.56 4.87 12.32 7.41 14.05 10.39C14.18 10.64 14.06 10.97 13.77 11.05Z"
          fill="#7562E0" fill-opacity="1.000000" fill-rule="evenodd"/>
    <path id="Vector"
          d="M16.15 14.5C16.26 14.73 16.12 15.02 15.87 15.11C10.33 16.89 7.02 21.33 6.02 22.86C5.86 23.11 5.51 23.12 5.32 22.89C3.57 20.75 2.51 18.28 2.51 15.3L2.51 15.07C2.51 14.82 2.71 14.62 2.96 14.63C4.53 14.7 9.67 14.48 15.01 12.95C15.21 12.88 15.43 12.98 15.52 13.17C15.73 13.61 15.95 14.05 16.15 14.5Z"
          fill="#7562E0" fill-opacity="1.000000" fill-rule="evenodd"/>
    <g/>
    <g opacity="facebook"/>
    <path id="Vector"
          d="M27.5 20.23C27.5 24.78 24.78 27.5 20.23 27.5L18.75 27.5C18.06 27.5 17.5 26.93 17.5 26.25L17.5 19.03C17.5 18.7 17.77 18.41 18.11 18.41L20.31 18.37C20.48 18.36 20.63 18.23 20.67 18.06L21.11 15.67C21.15 15.45 20.97 15.23 20.73 15.23L18.07 15.27C17.72 15.27 17.45 15 17.43 14.66L17.38 11.6C17.38 11.39 17.54 11.22 17.76 11.22L20.76 11.17C20.97 11.17 21.13 11.01 21.13 10.8L21.08 7.8C21.08 7.58 20.92 7.42 20.71 7.42L17.33 7.47C15.26 7.51 13.61 9.21 13.65 11.28L13.71 14.72C13.72 15.07 13.45 15.35 13.1 15.36L11.6 15.38C11.38 15.38 11.22 15.55 11.22 15.76L11.26 18.13C11.26 18.35 11.42 18.51 11.63 18.51L13.13 18.48C13.48 18.48 13.76 18.76 13.77 19.1L13.88 26.22C13.9 26.92 13.33 27.5 12.63 27.5L9.76 27.5C5.21 27.5 2.5 24.78 2.5 20.22L2.5 9.76C2.5 5.21 5.21 2.5 9.76 2.5L20.23 2.5C24.78 2.5 27.5 5.21 27.5 9.76L27.5 20.23Z"
          fill="#7562E0" fill-opacity="1.000000" fill-rule="nonzero"/>
    <g/>
    <g id="insta">
        <path id="Vector"
              d="M20.23 2.5L9.76 2.5C5.21 2.5 2.5 5.21 2.5 9.76L2.5 20.22C2.5 24.78 5.21 27.5 9.76 27.5L20.22 27.5C24.77 27.5 27.48 24.78 27.48 20.23L27.48 9.76C27.5 5.21 24.78 2.5 20.23 2.5ZM15 19.85C12.32 19.85 10.14 17.67 10.14 15C10.14 12.32 12.32 10.14 15 10.14C17.67 10.14 19.85 12.32 19.85 15C19.85 17.67 17.67 19.85 15 19.85ZM22.4 8.6C22.33 8.75 22.25 8.88 22.13 9.01C22.01 9.12 21.87 9.21 21.72 9.27C21.57 9.33 21.41 9.37 21.25 9.37C20.91 9.37 20.6 9.25 20.36 9.01C20.25 8.88 20.16 8.75 20.1 8.6C20.03 8.44 20 8.28 20 8.12C20 7.96 20.03 7.8 20.1 7.64C20.16 7.48 20.25 7.36 20.36 7.23C20.65 6.94 21.08 6.81 21.48 6.89C21.57 6.91 21.65 6.93 21.72 6.97C21.8 7 21.87 7.03 21.95 7.08C22.01 7.12 22.07 7.18 22.13 7.23C22.25 7.36 22.33 7.48 22.4 7.64C22.46 7.8 22.5 7.96 22.5 8.12C22.5 8.28 22.46 8.44 22.4 8.6Z"
              fill="#7562E0" fill-opacity="1.000000" fill-rule="nonzero"/>
    </g>
    <g id="mail">
        <path id="Vector"
              d="M21.25 4.37L8.75 4.37C5 4.37 2.5 6.25 2.5 10.62L2.5 19.37C2.5 23.75 5 25.62 8.75 25.62L21.25 25.62C25 25.62 27.5 23.75 27.5 19.37L27.5 10.62C27.5 6.25 25 4.37 21.25 4.37ZM21.83 11.98L17.92 15.11C17.1 15.77 16.04 16.1 15 16.1C13.95 16.1 12.88 15.77 12.07 15.11L8.16 11.98C7.76 11.66 7.7 11.06 8.01 10.66C8.33 10.26 8.92 10.18 9.32 10.51L13.23 13.63C14.18 14.39 15.8 14.39 16.75 13.63L20.66 10.51C21.06 10.18 21.66 10.25 21.97 10.66C22.3 11.06 22.23 11.66 21.83 11.98Z"
              fill="#7562E0" fill-opacity="1.000000" fill-rule="nonzero"/>
    </g>


    <!--	svg Для кнопок-->
    <g id="eye">
        <path id="Vector"
              d="M17.7 7.62C15.78 4.6 12.96 2.85 9.99 2.85C8.51 2.85 7.07 3.29 5.75 4.1C4.44 4.91 3.25 6.1 2.29 7.62C1.45 8.93 1.45 11.05 2.29 12.36C4.21 15.4 7.03 17.13 9.99 17.13C11.48 17.13 12.92 16.7 14.24 15.89C15.55 15.07 16.74 13.88 17.7 12.36C18.54 11.06 18.54 8.93 17.7 7.62ZM9.99 13.36C8.13 13.36 6.63 11.85 6.63 10C6.63 8.14 8.13 6.63 9.99 6.63C11.86 6.63 13.36 8.14 13.36 10C13.36 11.85 11.86 13.36 9.99 13.36Z"
              fill="#FFFFFF" fill-opacity="1.000000" fill-rule="nonzero"/>
        <path id="Vector"
              d="M10 7.61C8.69 7.61 7.62 8.68 7.62 10C7.62 11.3 8.69 12.37 10 12.37C11.3 12.37 12.38 11.3 12.38 10C12.38 8.69 11.3 7.61 10 7.61Z"
              fill="#FFFFFF" fill-opacity="1.000000" fill-rule="nonzero"/>
    </g>
    <g id="user">
        <path id="Vector"
              d="M14.16 5.83C14.16 8.13 12.3 10 10 10C7.69 10 5.83 8.13 5.83 5.83C5.83 3.53 7.69 1.66 10 1.66C12.3 1.66 14.16 3.53 14.16 5.83Z"
              fill="#FFFFFF" fill-opacity="1.000000" fill-rule="evenodd"/>
        <path id="Vector"
              d="M10 12.08C5.82 12.08 2.42 14.88 2.42 18.33C2.42 18.56 2.6 18.74 2.84 18.74L17.15 18.74C17.39 18.74 17.57 18.56 17.57 18.33C17.57 14.88 14.17 12.08 10 12.08Z"
              fill="#FFFFFF" fill-opacity="1.000000" fill-rule="nonzero"/>
    </g>
</svg>
