<svg width="48.000000" height="48.000000" viewBox="0 0 48 48" fill="none" xmlns="http://www.w3.org/2000/svg" xmlns:xlink="http://www.w3.org/1999/xlink">
	<desc>
			Created with Pixso.
	</desc>
	<defs/>
	<g opacity="0.000000">
		<path id="Vector" d="M0 0L48 0L48 48L0 48L0 0Z" fill="#FFFFFF" fill-opacity="1.000000" fill-rule="evenodd"/>
	</g>
	<path id="Vector" d="M36 32.02C37.09 32.02 38 32.91 38 34.02L38 36C38 40.4 35 44 30 44L18 44C13 44 10 40.4 10 36L10 34.02C10 32.91 10.9 32.02 12 32.02L36 32.02Z" fill="#FFFFFF" fill-opacity="1.000000" fill-rule="nonzero"/>
	<path id="Vector" d="M38 12L38 27C38 28.1 37.09 29 36 29L12 29C10.9 29 10 28.1 10 27L10 12C10 7.6 13 4 18 4L30 4C35 4 38 7.6 38 12Z" fill="#FFFFFF" fill-opacity="1.000000" fill-rule="nonzero"/>
	<path id="Vector" d="M6 41.5C5.17 41.5 4.5 40.82 4.5 40L4.5 8C4.5 7.17 5.17 6.5 6 6.5C6.82 6.5 7.5 7.17 7.5 8L7.5 40C7.5 40.82 6.82 41.5 6 41.5Z" fill="#FFFFFF" fill-opacity="1.000000" fill-rule="nonzero"/>
	<path id="Vector" d="M42 41.5C41.18 41.5 40.5 40.82 40.5 40L40.5 8C40.5 7.17 41.18 6.5 42 6.5C42.82 6.5 43.5 7.17 43.5 8L43.5 40C43.5 40.82 42.82 41.5 42 41.5Z" fill="#FFFFFF" fill-opacity="1.000000" fill-rule="nonzero"/>

</svg>
